<svg width="1024" height="1024" xmlns="http://www.w3.org/2000/svg">

 <g>
  <title>background</title>
  <rect fill="none" id="canvas_background" height="402" width="582" y="-1" x="-1"/>
 </g>
 <g>
  <title>Layer 1</title>
  <path fill="#ffffff" stroke="null" id="svg_1" d="m509.905031,4.189958c-281.59305,0 -509.90501,234.058768 -509.90501,522.739756c0,230.995839 146.087785,426.895626 348.72324,496.002434c25.489275,4.786336 34.795041,-11.358359 34.795041,-25.141536c0,-12.443657 -0.467081,-53.664545 -0.716058,-97.311273c-141.792433,31.585937 -171.763295,-61.641431 -171.763295,-61.641431c-23.216612,-60.365211 -56.611407,-76.445584 -56.611407,-76.445584c-46.340606,-32.415991 3.515556,-31.777881 3.515556,-31.777881c51.195658,3.636717 78.148918,53.856488 78.148918,53.856488c45.501055,79.891379 119.384498,56.791795 148.390325,43.391484c4.634957,-33.692211 17.830741,-56.791795 32.367017,-69.80924c-113.190945,-13.208368 -232.263724,-58.068015 -232.263724,-258.371271c0,-57.11136 19.887291,-103.692373 52.440543,-140.28824c-5.197645,-13.272689 -22.750527,-66.459417 5.041287,-138.40556c0,0 42.762307,-14.038421 140.235829,53.601244c40.645006,-11.645253 84.24786,-17.388244 127.600741,-17.580187c43.322008,0.191944 86.954739,5.998235 127.663483,17.643488c97.288282,-67.702966 140.112336,-53.601244 140.112336,-53.601244c27.88543,72.010464 10.332548,125.132871 5.10403,138.34226c32.677741,36.595867 52.40967,83.177901 52.40967,140.28824c0,200.813744 -119.26001,245.03426 -232.855293,257.988405c18.362556,16.207995 34.607811,47.985876 34.607811,96.737484c0,69.873561 -0.685185,126.218169 -0.685185,143.44714c0,13.910799 9.273897,30.182095 35.105765,25.077215c202.481088,-69.23443 348.443389,-265.134217 348.443389,-496.002434c0,-288.680988 -228.31196,-522.739756 -509.90501,-522.739756z"/>
 </g>
</svg>